<svg xmlns="http://www.w3.org/2000/svg" xmlns:xlink="http://www.w3.org/1999/xlink" version="1.0" width="236" height="63" enable-background="new 0 0 283.46 283.46" xml:space="preserve"><rect id="backgroundrect" width="100%" height="100%" x="0" y="0" fill="none" stroke="none"/>

  <g class="currentLayer" style=""><title>Layer 1</title><g id="svg_1" class="">
	<g id="svg_2">
		<g id="svg_3">
			<g id="svg_4">
				<path d="M86.5049995727539,20.706003173828122 l-9.648,21.342 h4.538 l0.8420000000000001,-1.872 l6.216,-3.649 l6.091,3.6580000000000004 v-0.09300000000000003 l0.8480000000000001,1.956 h4.646 l-9.505,-21.342 H86.5049995727539 zM88.3319995727539,32.34100317382811 l-3.5140000000000002,2.103 l3.644,-8.001 l3.6790000000000003,8.142 L88.3319995727539,32.34100317382811 z" id="svg_5"/>
        <polygon points="126.49300384521484,34.85099792480469 115.4229965209961,20.706008911132812 111.5979995727539,20.706008911132812 111.5979995727539,42.0469970703125 115.74500274658203,42.0469970703125 115.74500274658203,27.902999877929688 126.81299591064453,42.0469970703125 130.63899993896484,42.0469970703125 130.63899993896484,20.706008911132812 126.49300384521484,20.706008911132812 " id="svg_6"/>
        <polygon points="150.24999237060547,20.706008911132812 146.10599517822266,20.706008911132812 146.10599517822266,42.0469970703125 162.43999481201172,42.0469970703125 162.43999481201172,37.90299987792969 150.24999237060547,37.90299987792969 " id="svg_7"/>
        <polygon points="181.07500457763672,28.822998046875 175.26399993896484,20.706008911132812 170.2439956665039,20.706008911132812 178.95000457763672,32.96800231933594 178.95000457763672,42.0469970703125 183.09600067138672,42.0469970703125 183.09600067138672,32.9739990234375 192.06099700927734,20.706008911132812 186.83199310302734,20.706008911132812 " id="svg_8"/>
        <polygon points="206.47899627685547,37.90299987792969 218.68999481201172,23.395004272460938 217.2719955444336,20.706008911132812 201.02399444580078,20.706008911132812 201.02399444580078,24.852005004882812 211.93199920654297,24.852005004882812 199.78699493408203,39.31700134277344 201.06499481201172,42.0469970703125 218.7249984741211,42.0469970703125 218.7249984741211,37.90299987792969 " id="svg_9"/>
			</g>
      <g id="svg_10">
				<rect x="60.99199676513672" y="0" width="1.4420000314712524" height="62.755001068115234" id="svg_11"/>
			</g>
		</g>
	</g>
    <linearGradient id="SVGID_1_" x1="-0.0000021706526128514103" y1="0.4999999192981261" x2="0.9999611739872267" y2="0.4999999192981261" transform="translate(-23.277000427246094,-110.35299682617188) ">
		<stop offset="0" style="stop-color:#76C044"/>
      <stop offset="1" style="stop-color:#2BACE2"/>
	</linearGradient>
    <path fill="url(#SVGID_1_)" d="M44.1739995727539,50.22300317382812 c-0.21400000000000002,0 -0.41800000000000004,0.03900000000000001 -0.6150000000000001,0.08800000000000002 l-3.118,-6.328 c0.5840000000000001,-0.43600000000000005 0.9670000000000001,-1.125 0.9670000000000001,-1.9140000000000001 c0,-1.318 -1.071,-2.391 -2.394,-2.391 c-0.22700000000000004,0 -0.43900000000000006,0.037000000000000005 -0.6470000000000001,0.09800000000000003 l-3.29,-6.673 c0.5850000000000001,-0.43800000000000006 0.9690000000000001,-1.1280000000000001 0.9680000000000001,-1.915 c-0.0010000000000000002,-1.3210000000000002 -1.072,-2.3930000000000002 -2.395,-2.3930000000000002 c-0.22500000000000003,0 -0.43900000000000006,0.04000000000000001 -0.6460000000000001,0.09900000000000003 l-3.153,-6.396 c0.5870000000000001,-0.43700000000000006 0.97,-1.1280000000000001 0.97,-1.9140000000000001 c0,-1.322 -1.073,-2.3930000000000002 -2.395,-2.3930000000000002 c-0.22600000000000003,0 -0.44000000000000006,0.04200000000000001 -0.6490000000000001,0.1 l-3.071,-6.235 c0.5870000000000001,-0.43600000000000005 0.972,-1.13 0.972,-1.9180000000000001 c0.0010000000000000002,-1.322 -1.071,-2.395 -2.394,-2.395 c-1.3210000000000002,0 -2.394,1.073 -2.395,2.395 c0,0.787 0.38800000000000007,1.482 0.976,1.919 l-3.073,6.235 c-0.20800000000000002,-0.05900000000000001 -0.42300000000000004,-0.101 -0.6490000000000001,-0.101 c-1.322,0 -2.394,1.07 -2.394,2.395 c0,0.785 0.38300000000000006,1.478 0.9690000000000001,1.911 l-3.153,6.397 c-0.20500000000000002,-0.05900000000000001 -0.41900000000000004,-0.09900000000000003 -0.6450000000000001,-0.09700000000000003 c-1.322,0 -2.395,1.068 -2.394,2.392 c0,0.784 0.38300000000000006,1.476 0.9670000000000001,1.9140000000000001 l-3.291,6.673 c-0.20600000000000002,-0.05700000000000001 -0.42200000000000004,-0.09800000000000003 -0.6460000000000001,-0.09800000000000003 c-1.324,0 -2.396,1.07 -2.395,2.3930000000000002 c-0.0010000000000000002,0.787 0.38200000000000006,1.477 0.9670000000000001,1.912 l-3.119,6.328 c-0.19700000000000004,-0.05100000000000001 -0.402,-0.08800000000000002 -0.6150000000000001,-0.08800000000000002 c-1.322,0 -2.394,1.07 -2.394,2.3930000000000002 c-0.0010000000000000002,1.324 1.072,2.395 2.394,2.396 c1.176,0 2.1470000000000002,-0.8480000000000001 2.351,-1.965 h5.702 c0.203,1.117 1.176,1.965 2.353,1.963 c1.3210000000000002,0.0020000000000000005 2.3930000000000002,-1.07 2.394,-2.395 c-0.0020000000000000005,-0.791 -0.38900000000000007,-1.484 -0.978,-1.9180000000000001 l3.089,-6.336 c0.20900000000000002,0.06200000000000001 0.42500000000000004,0.10200000000000001 0.6530000000000001,0.10200000000000001 c1.3210000000000002,0 2.394,-1.07 2.394,-2.3930000000000002 c0.0010000000000000002,-0.795 -0.39000000000000007,-1.492 -0.987,-1.9300000000000002 l3.271,-6.703 c0.251,0.08800000000000002 0.515,0.14400000000000002 0.795,0.14600000000000002 c0.24400000000000002,0.0010000000000000002 0.47700000000000004,-0.04700000000000001 0.6980000000000002,-0.11600000000000002 l3.365,6.7010000000000005 c-0.5730000000000001,0.43800000000000006 -0.9490000000000001,1.121 -0.9490000000000001,1.8960000000000001 c0.0010000000000000002,1.326 1.072,2.396 2.396,2.396 c0.23,0 0.44700000000000006,-0.04100000000000001 0.6570000000000001,-0.10400000000000001 l3.19,6.355 c-0.5770000000000001,0.43600000000000005 -0.9570000000000001,1.123 -0.9570000000000001,1.9020000000000001 c0,1.324 1.073,2.395 2.396,2.396 c1.173,0 2.146,-0.8500000000000001 2.35,-1.965 h5.246 c0.203,1.115 1.177,1.965 2.352,1.965 c1.3210000000000002,-0.0020000000000000005 2.396,-1.072 2.396,-2.396 C46.56899957275391,51.29300317382811 45.4959995727539,50.22300317382812 44.1739995727539,50.22300317382812 zM42.7759995727539,50.67800317382813 c-0.49000000000000005,0.35400000000000004 -0.8410000000000001,0.8870000000000001 -0.9530000000000001,1.506 h-5.249 c-0.11400000000000002,-0.6350000000000001 -0.47600000000000003,-1.178 -0.983,-1.5310000000000001 l2.846,-6.266 c0.18600000000000003,0.04700000000000001 0.37600000000000006,0.07600000000000001 0.5770000000000001,0.07600000000000001 c0.22700000000000004,0 0.44200000000000006,-0.03900000000000001 0.6510000000000001,-0.1 L42.7759995727539,50.67800317382813 zM37.591999572753906,40.155003173828135 c-0.47800000000000004,0.35500000000000004 -0.8190000000000001,0.8810000000000001 -0.93,1.488 l-5.372,0.008000000000000002 c-0.11400000000000002,-0.6500000000000001 -0.48700000000000004,-1.213 -1.016,-1.57 l2.84,-6.564 c0.17200000000000001,0.04300000000000001 0.35100000000000003,0.06500000000000002 0.535,0.06700000000000002 c0.22800000000000004,0 0.44300000000000006,-0.04200000000000001 0.6520000000000001,-0.10200000000000001 L37.591999572753906,40.155003173828135 zM32.226999572753904,29.27300317382813 c-0.47800000000000004,0.35400000000000004 -0.8190000000000001,0.8770000000000001 -0.929,1.485 h-5.518 c-0.12200000000000001,-0.6660000000000001 -0.516,-1.232 -1.066,-1.582 l3.071,-6.295 c0.20400000000000001,0.05600000000000001 0.41500000000000004,0.09600000000000003 0.6400000000000001,0.09800000000000003 c0.22700000000000004,-0.0020000000000000005 0.44100000000000006,-0.04200000000000001 0.6500000000000001,-0.101 L32.226999572753904,29.27300317382813 zM20.491999572753905,21.01500317382812 h5.584 c0.11100000000000002,0.6100000000000001 0.453,1.135 0.932,1.49 l-3.093,6.339 c-0.15700000000000003,-0.03300000000000001 -0.31900000000000006,-0.04900000000000001 -0.48400000000000004,-0.04900000000000001 c-0.22300000000000003,0 -0.43300000000000005,0.04000000000000001 -0.6360000000000001,0.09600000000000003 l-3.215,-6.4030000000000005 C20.04799957275391,22.13200317382814 20.382999572753903,21.61800317382813 20.491999572753905,21.01500317382812 zM22.640999572753906,12.431003173828131 c0.20500000000000002,0.05900000000000001 0.41700000000000004,0.1 0.6430000000000001,0.1 c0.22500000000000003,-0.0010000000000000002 0.43800000000000006,-0.04100000000000001 0.6440000000000001,-0.1 l3.075,6.238 c-0.47600000000000003,0.35400000000000004 -0.8160000000000001,0.8770000000000001 -0.927,1.483 h-5.584 c-0.11000000000000001,-0.6060000000000001 -0.45,-1.1280000000000001 -0.925,-1.483 L22.640999572753906,12.431003173828131 zM17.490999572753907,22.87800317382812 c0.20900000000000002,0.05900000000000001 0.42400000000000004,0.09900000000000003 0.6480000000000001,0.09900000000000003 c0.234,0 0.454,-0.04400000000000001 0.6690000000000002,-0.10400000000000001 l3.209,6.393 c-0.48200000000000004,0.35300000000000004 -0.8290000000000001,0.8780000000000001 -0.9380000000000001,1.493 l-5.8100000000000005,-0.0010000000000000002 c-0.11000000000000001,-0.6070000000000001 -0.451,-1.131 -0.929,-1.485 L17.490999572753907,22.87800317382812 zM12.264999572753908,33.48300317382814 c0.21000000000000002,0.05900000000000001 0.42500000000000004,0.09900000000000003 0.6520000000000001,0.101 c0.20800000000000002,0 0.402,-0.03400000000000001 0.5930000000000001,-0.08300000000000002 l3.06,6.627 c-0.49500000000000005,0.35200000000000004 -0.8500000000000001,0.8890000000000001 -0.9630000000000001,1.514 h-5.703 c-0.11100000000000002,-0.6070000000000001 -0.451,-1.131 -0.928,-1.486 L12.264999572753908,33.48300317382814 zM6.901999572753905,44.36200317382813 c0.20900000000000002,0.06100000000000001 0.42600000000000005,0.10400000000000001 0.6520000000000001,0.10200000000000001 c0.22900000000000004,0 0.44700000000000006,-0.03900000000000001 0.6560000000000001,-0.10200000000000001 l3.157,6.346 c-0.47400000000000003,0.35200000000000004 -0.811,0.8730000000000001 -0.922,1.477 h-5.7010000000000005 c-0.11400000000000002,-0.6190000000000001 -0.464,-1.15 -0.9550000000000001,-1.506 L6.901999572753905,44.36200317382813 zM13.438999572753907,50.32100317382813 c-0.20500000000000002,-0.05700000000000001 -0.41700000000000004,-0.09800000000000003 -0.6420000000000001,-0.09800000000000003 c-0.22900000000000004,0 -0.44700000000000006,0.04100000000000001 -0.6570000000000001,0.10200000000000001 l-3.154,-6.344 c0.47200000000000003,-0.35200000000000004 0.808,-0.8730000000000001 0.918,-1.48 h5.702 c0.11000000000000001,0.6070000000000001 0.44900000000000007,1.129 0.922,1.482 L13.438999572753907,50.32100317382813 zM18.583999572753903,39.772003173828125 c-0.2,-0.05700000000000001 -0.40900000000000003,-0.09400000000000003 -0.6270000000000001,-0.09400000000000003 c-0.21100000000000002,0 -0.40900000000000003,0.03300000000000001 -0.6040000000000001,0.08400000000000002 l-3.058,-6.619 c0.501,-0.35400000000000004 0.8580000000000001,-0.8960000000000001 0.974,-1.521 h5.8100000000000005 c0.101,0.553 0.3960000000000001,1.033 0.806,1.381 L18.583999572753903,39.772003173828125 zM24.892999572753908,33.07100317382813 c0.455,-0.35400000000000004 0.78,-0.8600000000000001 0.8890000000000001,-1.447 l5.516,-0.0020000000000000005 c0.11900000000000002,0.6470000000000001 0.49300000000000005,1.204 1.021,1.557 l-2.837,6.562 c-0.17600000000000002,-0.03900000000000001 -0.35700000000000004,-0.06600000000000002 -0.544,-0.06600000000000002 c-0.23500000000000001,0 -0.459,0.04500000000000001 -0.6740000000000002,0.10700000000000001 L24.892999572753908,33.07100317382813 zM30.369999572753905,43.97700317382814 c0.468,-0.35200000000000004 0.805,-0.8670000000000001 0.918,-1.463 l5.378,-0.008000000000000002 c0.11200000000000002,0.6290000000000001 0.47600000000000003,1.174 0.982,1.5270000000000001 l-2.847,6.266 c-0.18600000000000003,-0.04700000000000001 -0.37500000000000006,-0.07600000000000001 -0.5760000000000001,-0.07600000000000001 c-0.234,0 -0.453,0.04500000000000001 -0.6660000000000001,0.10500000000000001 L30.369999572753905,43.97700317382814 z" id="svg_12"/>
    <path d="M231.0179995727539,22.103003173828114 c0.05900000000000001,-0.018000000000000002 0.11700000000000002,-0.038000000000000006 0.17800000000000002,-0.06200000000000001 c0.19500000000000003,-0.07600000000000001 0.38300000000000006,-0.19900000000000004 0.555,-0.36500000000000005 c0.17,-0.16400000000000003 0.31600000000000006,-0.37900000000000006 0.43000000000000005,-0.6400000000000001 c0.11500000000000002,-0.261 0.17400000000000002,-0.5850000000000001 0.17400000000000002,-0.9620000000000001 c0,-0.35700000000000004 -0.06400000000000002,-0.6720000000000002 -0.19300000000000003,-0.937 c-0.129,-0.264 -0.30100000000000005,-0.48100000000000004 -0.514,-0.6490000000000001 c-0.20700000000000002,-0.16300000000000003 -0.44900000000000007,-0.28400000000000003 -0.7210000000000001,-0.36000000000000004 c-0.258,-0.07300000000000001 -0.529,-0.11000000000000001 -0.805,-0.11000000000000001 h-3.98 v6.83 h1.4100000000000001 v-2.6420000000000003 h1.947 l1.268,2.6420000000000003 h1.596 L231.0179995727539,22.103003173828114 zM227.5509995727539,19.430003173828112 h2.5700000000000003 c0.11300000000000002,0 0.22700000000000004,0.011000000000000003 0.3400000000000001,0.03300000000000001 c0.09800000000000003,0.020000000000000004 0.18200000000000002,0.05300000000000001 0.256,0.10200000000000001 c0.06600000000000002,0.04500000000000001 0.12100000000000001,0.10500000000000001 0.16200000000000003,0.18500000000000003 c0.04100000000000001,0.07800000000000001 0.06200000000000001,0.18700000000000003 0.06200000000000001,0.32500000000000007 c0,0.23800000000000002 -0.06400000000000002,0.41300000000000003 -0.19500000000000003,0.533 c-0.137,0.125 -0.3480000000000001,0.18800000000000003 -0.6250000000000001,0.18800000000000003 h-2.5700000000000003 V19.430003173828112 z" id="svg_13"/>
    <path d="M229.2509995727539,15.100003173828128 c-3.492,0 -6.334,2.841 -6.334,6.333 s2.842,6.333 6.334,6.333 s6.333,-2.841 6.333,-6.333 S232.74399957275392,15.100003173828128 229.2509995727539,15.100003173828128 zM229.2509995727539,26.76700317382813 c-2.941,0 -5.334,-2.3930000000000002 -5.334,-5.333 s2.3930000000000002,-5.333 5.334,-5.333 c2.94,0 5.333,2.3930000000000002 5.333,5.333 S232.1919995727539,26.76700317382813 229.2509995727539,26.76700317382813 z" id="svg_14"/>
</g></g></svg>
